<svg width="50" height="50" fill="none" xmlns="http://www.w3.org/2000/svg"><g fill-rule="evenodd" clip-rule="evenodd" fill="#1E1E1E"><path d="M19.442 7.923c2.058-4.94 9.058-4.94 11.116 0a1.866 1.866 0 0 0 2.5.967c5.113-2.36 10.413 2.937 8.052 8.052a1.862 1.862 0 0 0 .967 2.5c4.94 2.058 4.94 9.058 0 11.116a1.866 1.866 0 0 0-.967 2.5c2.36 5.113-2.937 10.41-8.052 8.052a1.865 1.865 0 0 0-2.5.965c-2.058 4.942-9.058 4.942-11.116 0a1.865 1.865 0 0 0-2.5-.965c-5.113 2.359-10.41-2.937-8.05-8.052a1.864 1.864 0 0 0-.967-2.5c-4.942-2.058-4.942-9.058 0-11.116a1.863 1.863 0 0 0 .967-2.5c-2.36-5.113 2.937-10.413 8.052-8.052a1.862 1.862 0 0 0 2.5-.967h-.002zM16.667 25a8.333 8.333 0 1 1 16.667 0 8.333 8.333 0 0 1-16.667 0z"/><path d="M25 20.833a4.167 4.167 0 1 0 0 8.334 4.167 4.167 0 0 0 0-8.334z"/></g></svg>