<svg width="50" height="50" fill="none" xmlns="http://www.w3.org/2000/svg"><path fill-rule="evenodd" clip-rule="evenodd" d="M15.041 10.783A7.055 7.055 0 0 1 18.25 10c1.105 0 2.196.266 3.209.783a8.366 8.366 0 0 1 2.677 2.194c.11.134.243.241.391.314a1.069 1.069 0 0 0 .946 0 1.18 1.18 0 0 0 .391-.314C27.397 11.096 29.509 10 31.75 10c2.24 0 4.353 1.094 5.886 2.977C39.164 14.854 40 17.366 40 19.955c0 2.59-.836 5.102-2.364 6.98l-9.297 11.419a4.552 4.552 0 0 1-1.512 1.216A4.124 4.124 0 0 1 25 40c-.63 0-1.252-.147-1.827-.43a4.552 4.552 0 0 1-1.512-1.216l-9.297-11.42a10.325 10.325 0 0 1-1.755-3.224c-.403-1.2-.61-2.472-.609-3.753 0-1.286.206-2.561.609-3.756.397-1.187.993-2.28 1.755-3.222a8.367 8.367 0 0 1 2.677-2.196z" fill="#FCFCFC"/></svg>