<svg width="50" height="50" fill="none" xmlns="http://www.w3.org/2000/svg"><path fill-rule="evenodd" clip-rule="evenodd" d="M40 22.699c-.006 3.271 0 6.543 0 9.814 0 1.345 0 2.504-.154 3.433-.165.994-.538 1.948-1.493 2.72-.956.774-2.134 1.076-3.364 1.21-1.147.124-2.578.124-4.24.124H19.25c-1.661 0-3.093 0-4.239-.124-1.23-.134-2.408-.436-3.364-1.21s-1.327-1.726-1.494-2.72C10 35.016 10 33.858 10 32.513c0-3.271.008-6.543 0-9.814-.002-1.082-.004-2.043.469-2.921.474-.879 1.344-1.531 2.325-2.265 1.974-1.48 3.943-2.962 5.913-4.443 1.137-.855 2.12-1.594 3.01-2.107.956-.55 2.006-.963 3.283-.963 1.279 0 2.328.413 3.285.963.888.513 1.87 1.252 3.007 2.107 1.96 1.471 3.94 2.963 5.914 4.442.98.735 1.852 1.387 2.325 2.266.474.879.472 1.839.468 2.92zm-15 8.197c-.497 0-.974.16-1.326.444-.352.285-.55.67-.55 1.073v3.035c0 .402-.197.788-.548 1.073a2.12 2.12 0 0 1-1.326.444 2.12 2.12 0 0 1-1.326-.444c-.351-.285-.549-.67-.549-1.073v-3.035c0-1.207.593-2.365 1.647-3.219 1.055-.853 2.486-1.333 3.978-1.333s2.922.48 3.977 1.333c1.055.854 1.648 2.012 1.648 3.22v3.034c0 .402-.198.788-.55 1.073a2.12 2.12 0 0 1-1.325.444 2.12 2.12 0 0 1-1.326-.444c-.352-.285-.55-.67-.55-1.073v-3.035c0-.402-.197-.788-.548-1.073A2.12 2.12 0 0 0 25 30.896z" fill="#000"/></svg>