<svg width="50" height="50" fill="none" xmlns="http://www.w3.org/2000/svg"><path fill-rule="evenodd" clip-rule="evenodd" d="M17.875 10.582C19.825 10.148 22.186 10 25 10s5.177.15 7.125.582c1.965.436 3.599 1.182 4.854 2.439 1.257 1.255 2.002 2.889 2.439 4.854.434 1.95.582 4.311.582 7.125s-.15 5.177-.582 7.125c-.437 1.965-1.182 3.599-2.439 4.854-1.255 1.257-2.889 2.002-4.854 2.439-1.948.434-4.311.582-7.125.582s-5.177-.15-7.125-.582c-1.965-.437-3.598-1.182-4.854-2.439-1.257-1.255-2.003-2.889-2.439-4.854C10.148 30.175 10 27.814 10 25s.15-5.177.582-7.125c.436-1.965 1.182-3.598 2.439-4.854 1.255-1.257 2.889-2.003 4.854-2.439zM20.5 24.25a3.75 3.75 0 1 1 7.5 0 3.75 3.75 0 0 1-7.5 0zm3.75-6.75a6.749 6.749 0 1 0 3.594 12.465l2.095 2.095a1.5 1.5 0 0 0 2.121-2.12l-2.095-2.096A6.75 6.75 0 0 0 24.25 17.5z" fill="#FCFCFC"/></svg>